<svg height="355" viewBox="0 0 397 355" width="397" xmlns="http://www.w3.org/2000/svg"><g fill="none" fill-rule="evenodd"><path d="m114.622644 327.195472 52.004717 13.810198v-18.05949l4.245283-4.249292h29.716982v21.246459 14.872523h-31.839624l-39.268868-16.997169z" fill="#cdbdb2"/><path d="m199.528302 327.195472 50.943397 13.810198v-18.05949l4.245283-4.249292h29.716981v21.246459 14.872523h-31.839623l-39.268868-16.997169z" fill="#cdbdb2" transform="matrix(-1 0 0 1 483.962264 0)"/><path d="m170.872644 287.889523-4.245283 35.056657 5.306604-4.249292h55.188679l6.367925 4.249292-4.245284-35.056657-8.490565-5.311615-42.452831 1.062323z" fill="#393939"/><path d="m142.216984 50.9915022 25.471698 59.4900858 11.674528 173.158643h41.391511l12.735849-173.158643 23.349056-59.4900858z" fill="#f89c35"/><path d="m30.7783023 181.657226-29.71698154 86.048161 74.29245284-4.249293h47.7594343l-1.061321-76.487253-10.613208-5.311615-72.1698143-1.062323z" fill="#f89d35"/><path d="m87.0283032 191.218134 61.5566058 4.249292-8.490565 65.864024-53.0660388-5.311615z" fill="#d87c30"/><path d="m87.0283032 192.280457 53.0660378 5.311615v26.558104l-53.0660378-5.311616z" fill="#ea8d3a"/><path d="m140.094341 201.841365 4.245283 39.305949-13.79717-28.682751z" fill="#f89d35"/><path d="m78.5377367 260.331329 58.3726433 4.249292-13.79717 19.121813-44.5754723-4.249292z" fill="#eb8f35"/><path d="m73.2311323 264.580622 44.5754717 4.249292v18.05949l-44.5754717-4.249292z" fill="#ea8e3a"/><path d="m140.094341 201.841365 4.245283 39.305949 8.490565-44.617565-4.245283-5.311615z" fill="#d87c30"/><path d="m113.561323 162.535416 24.410377 48.866873 2.122641-39.305949z" fill="#eb8f35"/><path d="m148.584906 262.456 13.79717-19.121814 2.122641 34.05661-1.061321 17.058759-14.858491-10.623231z" fill="#393939"/><path d="m162.382076 276.204184 1.06132 17.058758 13.79717-10.623231v-12.747538z" fill="#e88f35"/><path d="m364.464623 181.657226 29.716981 86.048161-74.292453-4.249293h-47.759434l1.061321-76.487253 10.613208-5.311615 72.169814-1.062323z" fill="#f89d35"/><path d="m308.214623 191.218134-61.556604 4.249292 8.490565 65.864024 53.066038-5.311615z" fill="#d87c30"/><path d="m308.214623 192.280457-53.066038 5.311615v26.558104l53.066038-5.311616z" fill="#ea8d3a"/><path d="m255.148585 201.841365-4.245283 39.305949 13.79717-28.682751z" fill="#f89d35"/><path d="m316.705189 260.331329-58.372642 4.249292 13.79717 19.121813 44.575472-4.249292z" fill="#eb8f35"/><path d="m323.072794 264.580622-44.575472 4.249292v18.05949l44.575472-4.249292z" fill="#ea8e3a"/><path d="m255.148585 201.841365-4.245283 39.305949-8.490565-44.617565 4.245283-5.311615z" fill="#d87c30"/><path d="m281.681603 162.535416-24.410377 48.866873-2.122642-39.305949z" fill="#eb8f35"/><path d="m246.65802 262.456-13.79717-19.121814-2.122641 34.05661 1.061321 17.058759 14.858491-10.623231z" fill="#393939"/><path d="m232.86085 276.204184-1.061321 17.058758-13.79717-10.623231v-12.747538z" fill="#e88f35"/><path d="m168.75 74.1871847-5.306604 32.9445533-13.79717-7.4362615z" fill="#e8821e"/><path d="m226.492925 74.1871847 5.306604 32.9445533 13.79717-7.4362615z" fill="#e8821e"/><path d="m168.75 74.1871847 11.674528-21.2464593 25.471698 11.6854063 23.349057-11.6854063 11.674528 21.2464593-12.735849 28.6954407-19.113207 14.8725233-16.990566-14.8725233z" fill="#e88f35"/><path d="m173.056604 136.739475-1.061321 55.240793 1.061321 25.495782 1.061321-21.246459 19.113207-19.121813 1.061321-39.305949z" fill="#393939"/><path d="m223.309434 136.739475 1.061321 55.240793-1.061321 25.495782-1.061321-21.246459-19.113207-19.121813-1.061321-39.305949z" fill="#393939"/><path d="m181.547169 124.054237v16.997169l6.367925 7.436261 6.367925 3.186969 6.367924-3.186969 6.367925-7.436261v-16.997169l-6.367925-4.249292-6.367924 4.249292-6.367925-4.249292z" fill="#e88f35"/><path d="m369.771226 146.300383-29.716981-6.373938 13.79717-39.305949z" fill="#f89d35"/><path d="m25.4716984 146.300383 29.7169811-6.373938-13.79717-39.305949z" fill="#f89d35"/><path d="m25.4716984 146.300383 37.1462264-46.742272-1.0613207 41.430595z" fill="#d87c30"/><path d="m369.771226 146.300383-37.146226-46.742272 1.061321 41.430595z" fill="#d87c30"/><path d="m340.054245 99.5581113 2.12264 70.1128767 15.919812-38.243626z" fill="#eb8f35"/><path d="m55.1886795 99.5581113-2.1226416 70.1128767-15.9198113-38.243626z" fill="#eb8f35"/><path d="m56.25 99.5581113-16.9905659-31.8822297 7.4292453-16.9971698 13.79717 20.1841365z" fill="#e8821e"/><path d="m339.146226 99.5581113 16.990566-31.8822297-7.429245-16.9971698-13.79717 20.1841365z" fill="#e8821e"/><path d="m350.820755 140.988768-29.716981-22.308783 32.901886 5.311616z" fill="#393939"/><path d="m44.5754717 140.988768 29.7169811-22.308783-32.9018869 5.311616z" fill="#393939"/><path d="m342.176792 246.582771-2.12264-30.819834 19.113207-7.436261-15.919811-21.246459 19.113207 11.685407 14.858491 29.757511-19.113207 35.056657z" fill="#eb8f35"/><path d="m53.0660378 246.582771 2.1226415-30.819834-19.1132075-7.436261 15.9198113-21.246459-19.1132075 11.685407-14.8584906 29.757511 19.1132075 35.056657z" fill="#eb8f35"/><path d="m77.4764153 203.965979 4.2452831 41.430596-15.9198113-7.436261z" fill="#eb8f35"/></g></svg>
