<svg height="512" viewBox="0 0 512 512" width="512" xmlns="http://www.w3.org/2000/svg"><path d="m246.104687 340.292969c-9.253906 0-16.746093 7.492187-16.746093 16.746093v86.757813c0 9.253906 7.492187 16.746094 16.746093 16.746094h19.792969c9.25 0 16.742188-7.492188 16.742188-16.746094v-86.757813c0-9.253906-7.492188-16.746093-16.742188-16.746093zm0 0" fill="#2962ff"/><path d="m396.632812 360.8125h19.789063c9.253906 0 16.746094-7.492188 16.746094-16.746094v-86.753906c0-9.253906-7.492188-16.746094-16.746094-16.746094h-19.789063c-9.253906 0-16.746093 7.492188-16.746093 16.746094v86.753906c0 9.253906 7.492187 16.746094 16.746093 16.746094zm0 0" fill="#2962ff"/><path d="m95.574219 360.8125h19.789062c9.253907 0 16.746094-7.492188 16.746094-16.746094v-86.753906c0-9.253906-7.492187-16.746094-16.746094-16.746094h-19.789062c-9.253907 0-16.746094 7.492188-16.746094 16.746094v86.753906c0 9.253906 7.492187 16.746094 16.746094 16.746094zm0 0" fill="#2962ff"/><path d="m512 256c0 141.386719-114.613281 256-256 256s-256-114.613281-256-256 114.613281-256 256-256 256 114.613281 256 256zm0 0" fill="#1565c0"/><path d="m384.828125 247.605469c0-71.476563-57.5-129.425781-128.414063-129.425781s-128.414062 57.949218-128.414062 129.425781c0 8.164062 6.621094 14.785156 14.785156 14.785156 8.164063 0 14.785156-6.621094 14.785156-14.785156 0-55.070313 44.351563-99.855469 98.84375-99.855469s98.84375 44.785156 98.84375 99.855469c0 8.164062 6.621094 14.785156 14.785157 14.785156 8.164062 0 14.785156-6.621094 14.785156-14.785156zm0 0" fill="#fff"/></svg>
